<svg xmlns="http://www.w3.org/2000/svg" width="32" height="32.125" viewBox="0 0 32 32.125">
  <g id="download" transform="translate(-1)">
    <path id="Path_9" data-name="Path 9" d="M30.331,10.084a8.34,8.34,0,0,0,.16-1.613A8.467,8.467,0,0,0,14.733,4.16,5.953,5.953,0,0,0,6.712,8.842a6.589,6.589,0,0,0,.876,13.118h6.588v2.008H12.608a.941.941,0,0,0-.771,1.481l4.392,6.275a.941.941,0,0,0,1.542,0l4.392-6.275a.941.941,0,0,0-.771-1.481H19.824V21.961h6.588a6.583,6.583,0,0,0,3.919-11.877ZM17,29.543l-2.584-3.692h.7a.941.941,0,0,0,.941-.941V13.3h1.882V24.91a.941.941,0,0,0,.941.941h.7Zm9.412-9.465H19.824V12.361a.941.941,0,0,0-.941-.941H15.118a.941.941,0,0,0-.941.941v7.718H7.588a4.706,4.706,0,0,1,0-9.412.941.941,0,0,0,.941-.941,4.071,4.071,0,0,1,6.141-3.513.941.941,0,0,0,1.337-.427A6.582,6.582,0,0,1,28.357,10.25a.941.941,0,0,0,.43,1.066,4.7,4.7,0,0,1-2.375,8.763Z" fill="#e0e0e0"/>
  </g>
</svg>
