<svg xmlns="http://www.w3.org/2000/svg" width="20" height="20" viewBox="0 0 20 20">
  <g id="gear_2_" data-name="gear (2)" transform="translate(0 0)">
    <path id="Path_1" data-name="Path 1" d="M138.39,133.609a4.781,4.781,0,1,0,4.781,4.781A4.786,4.786,0,0,0,138.39,133.609Zm0,8.367a3.586,3.586,0,1,1,3.586-3.586A3.59,3.59,0,0,1,138.39,141.976Zm0,0" transform="translate(-128.39 -128.39)" fill="#e0e0e0"/>
    <path id="Path_2" data-name="Path 2" d="M19.529,7.723l-1.537-.334A8.366,8.366,0,0,0,17.5,6.2l.851-1.324a.6.6,0,0,0-.08-.746L15.874,1.731a.6.6,0,0,0-.746-.08L13.8,2.5a8.366,8.366,0,0,0-1.193-.495L12.277.47A.6.6,0,0,0,11.693,0H8.307A.6.6,0,0,0,7.723.47L7.389,2.008A8.366,8.366,0,0,0,6.2,2.5L4.872,1.651a.6.6,0,0,0-.746.08L1.731,4.126a.6.6,0,0,0-.08.746L2.5,6.2a8.366,8.366,0,0,0-.495,1.193L.47,7.723A.6.6,0,0,0,0,8.307v3.387a.6.6,0,0,0,.471.584l1.537.334A8.366,8.366,0,0,0,2.5,13.8l-.851,1.324a.6.6,0,0,0,.08.746l2.395,2.395a.6.6,0,0,0,.746.08L6.2,17.5a8.366,8.366,0,0,0,1.193.495l.334,1.537A.6.6,0,0,0,8.307,20h3.387a.6.6,0,0,0,.584-.471l.334-1.537A8.366,8.366,0,0,0,13.8,17.5l1.324.851a.6.6,0,0,0,.746-.08l2.395-2.395a.6.6,0,0,0,.08-.746L17.5,13.8a8.366,8.366,0,0,0,.495-1.193l1.537-.334A.6.6,0,0,0,20,11.693V8.307A.6.6,0,0,0,19.529,7.723ZM18.8,11.211l-1.409.306a.6.6,0,0,0-.449.423,7.17,7.17,0,0,1-.662,1.6.6.6,0,0,0,.018.617l.78,1.214-1.713,1.714-1.214-.78a.6.6,0,0,0-.617-.018,7.175,7.175,0,0,1-1.6.662.6.6,0,0,0-.423.449L11.211,18.8H8.788L8.482,17.4a.6.6,0,0,0-.423-.449,7.17,7.17,0,0,1-1.6-.662.6.6,0,0,0-.617.018l-1.214.78L2.917,15.369l.78-1.214a.6.6,0,0,0,.018-.617,7.178,7.178,0,0,1-.662-1.6.6.6,0,0,0-.449-.423L1.2,11.211V8.788L2.6,8.482a.6.6,0,0,0,.449-.423,7.17,7.17,0,0,1,.662-1.6A.6.6,0,0,0,3.7,5.845l-.78-1.214L4.631,2.917l1.214.78a.6.6,0,0,0,.617.018,7.175,7.175,0,0,1,1.6-.662A.6.6,0,0,0,8.482,2.6L8.788,1.2h2.423L11.518,2.6a.6.6,0,0,0,.423.449,7.17,7.17,0,0,1,1.6.662.6.6,0,0,0,.617-.018l1.214-.78,1.713,1.714L16.3,5.845a.6.6,0,0,0-.018.617,7.171,7.171,0,0,1,.662,1.6.6.6,0,0,0,.449.423l1.41.306Zm0,0" fill="#e0e0e0"/>
  </g>
</svg>
