<svg xmlns="http://www.w3.org/2000/svg" width="12.704" height="13.523" viewBox="0 0 12.704 13.523">
  <g id="logout_4_" data-name="logout (4)" transform="translate(-10)">
    <path id="Path_14" data-name="Path 14" d="M77.2,80.179a.615.615,0,1,0-.869.869l1.819,1.819H70.617a.615.615,0,1,0,0,1.229h7.532l-1.819,1.819a.615.615,0,0,0,.869.869l2.869-2.869a.615.615,0,0,0,0-.869Z" transform="translate(-57.543 -76.72)" fill="#ab1017"/>
    <path id="Path_15" data-name="Path 15" d="M15.942,13.523a.615.615,0,0,0,0-1.229H11.229V1.229h4.713a.615.615,0,0,0,0-1.229H10.615A.615.615,0,0,0,10,.615V12.909a.615.615,0,0,0,.615.615Z" fill="#ab1017"/>
  </g>
</svg>
