<svg xmlns="http://www.w3.org/2000/svg" width="16" height="14.063" viewBox="0 0 16 14.063">
  <g id="love_1_" data-name="love (1)" transform="translate(0 -31)">
    <path id="Path_3" data-name="Path 3" d="M11.75,31A4.232,4.232,0,0,0,8,33.532,4.232,4.232,0,0,0,4.25,31,4.362,4.362,0,0,0,0,35.579c0,3.327,3.174,5.415,7.691,9.368a.469.469,0,0,0,.617,0C12.822,41,16,38.906,16,35.579A4.362,4.362,0,0,0,11.75,31ZM8,43.972C3.84,40.358.938,38.351.938,35.579A3.412,3.412,0,0,1,4.25,31.938c1.82,0,2.948,1.686,3.3,2.937a.469.469,0,0,0,.9,0c.345-1.235,1.46-2.937,3.3-2.937a3.412,3.412,0,0,1,3.313,3.641C15.063,38.353,12.155,40.362,8,43.972Z" fill="#e0e0e0"/>
  </g>
</svg>
