<svg id="more_4_" data-name="more (4)" xmlns="http://www.w3.org/2000/svg" width="16.031" height="16.031" viewBox="0 0 16.031 16.031">
  <g id="Group_103" data-name="Group 103">
    <g id="Group_102" data-name="Group 102">
      <path id="Path_35" data-name="Path 35" d="M8.016,0a8.016,8.016,0,1,0,8.016,8.016A8.011,8.011,0,0,0,8.016,0Zm0,14.963a6.947,6.947,0,1,1,6.947-6.947A6.955,6.955,0,0,1,8.016,14.963Z" fill="#fff"/>
    </g>
  </g>
  <g id="Group_105" data-name="Group 105" transform="translate(3.87 3.87)">
    <g id="Group_104" data-name="Group 104">
      <path id="Path_36" data-name="Path 36" d="M131.346,127.2h-3.077v-3.077a.534.534,0,1,0-1.069,0V127.2h-3.077a.534.534,0,1,0,0,1.069H127.2v3.077a.534.534,0,0,0,1.069,0v-3.077h3.077a.534.534,0,1,0,0-1.069Z" transform="translate(-123.588 -123.588)" fill="#fff"/>
    </g>
  </g>
</svg>
