<svg xmlns="http://www.w3.org/2000/svg" width="12.704" height="16.678" viewBox="0 0 12.704 16.678">
  <g id="music-file_1_" data-name="music-file (1)" transform="translate(-61)">
    <path id="Path_10" data-name="Path 10" d="M73.7,3.746a.488.488,0,0,0-.143-.345L70.3.143A.488.488,0,0,0,69.958,0H62.792A1.794,1.794,0,0,0,61,1.792V14.886a1.794,1.794,0,0,0,1.792,1.792h9.121A1.794,1.794,0,0,0,73.7,14.886V3.746ZM70.446,1.668l1.589,1.589H70.446ZM71.912,15.7H62.792a.815.815,0,0,1-.814-.814V1.792a.815.815,0,0,1,.814-.814h6.678V3.746a.489.489,0,0,0,.489.489h2.769V14.886A.815.815,0,0,1,71.912,15.7Z" fill="#ab1017"/>
    <path id="Path_11" data-name="Path 11" d="M138.311,186.108a.489.489,0,0,0-.41-.1l-4.56.977a.489.489,0,0,0-.386.478v3.5a1.466,1.466,0,1,0,.977,1.382v-2.537l3.583-.768v1.271a1.466,1.466,0,1,0,.977,1.382v-5.212A.489.489,0,0,0,138.311,186.108Zm-5.845,6.732a.489.489,0,1,1,.489-.489A.489.489,0,0,1,132.466,192.84Zm1.466-4.025v-.955l3.583-.768v.955Zm3.095,3.373a.489.489,0,1,1,.489-.489A.489.489,0,0,1,137.026,192.189Z" transform="translate(-67.72 -179.941)" fill="#ab1017"/>
  </g>
</svg>
