<svg id="music-album" xmlns="http://www.w3.org/2000/svg" width="12.704" height="12.704" viewBox="0 0 12.704 12.704">
  <g id="Group_6" data-name="Group 6" transform="translate(3.747 4.516)">
    <g id="Group_5" data-name="Group 5">
      <path id="Path_12" data-name="Path 12" d="M155.748,182.005l-2.977.744a.372.372,0,0,0-.282.361v1.925a1.116,1.116,0,1,0,.744,1.053V183.4l2.233-.558v1.448a1.116,1.116,0,1,0,.744,1.053v-2.977A.372.372,0,0,0,155.748,182.005Zm-3.632,4.455a.372.372,0,1,1,.372-.372A.373.373,0,0,1,152.117,186.461Zm2.977-.744a.372.372,0,1,1,.372-.372A.373.373,0,0,1,155.094,185.716Z" transform="translate(-151 -181.994)" fill="#ab1017"/>
    </g>
  </g>
  <g id="Group_8" data-name="Group 8">
    <g id="Group_7" data-name="Group 7">
      <path id="Path_13" data-name="Path 13" d="M12.332,8.982H11.19V3.35a.372.372,0,0,0-.372-.372h-.372V1.861a.372.372,0,0,0-.372-.372H9.7V.372A.372.372,0,0,0,9.329,0H3.374A.372.372,0,0,0,3,.372V1.489H2.63a.372.372,0,0,0-.372.372V2.977H1.886a.372.372,0,0,0-.372.372V8.982H.372A.372.372,0,0,0,0,9.354v2.977a.372.372,0,0,0,.372.372H12.332a.372.372,0,0,0,.372-.372V9.354A.372.372,0,0,0,12.332,8.982ZM3.747.744H8.957v.744H3.747ZM3,2.233H9.7v.744H3ZM2.258,3.722h8.188v6.749H2.258Zm9.7,8.238H.744V9.726h.769v1.117a.372.372,0,0,0,.372.372h8.932a.372.372,0,0,0,.372-.372V9.726h.769Z" fill="#ab1017"/>
    </g>
  </g>
</svg>
