<svg xmlns="http://www.w3.org/2000/svg" width="11.704" height="11.201" viewBox="0 0 11.704 11.201">
  <g id="music-folder" transform="translate(0 -11)">
    <path id="Path_7" data-name="Path 7" d="M11.361,13.743h-.571V12.714a.343.343,0,0,0-.343-.343H5.162l-.379-1.137A.343.343,0,0,0,4.458,11H.343A.343.343,0,0,0,0,11.343v9.6A1.259,1.259,0,0,0,1.257,22.2h9.189A1.259,1.259,0,0,0,11.7,20.944V14.086A.343.343,0,0,0,11.361,13.743Zm-9.532.343v6.858a.571.571,0,1,1-1.143,0V11.686H4.21l.379,1.137a.343.343,0,0,0,.325.234H10.1v.686H2.172A.343.343,0,0,0,1.829,14.086Zm9.189,6.858a.572.572,0,0,1-.571.571H2.377a1.25,1.25,0,0,0,.138-.571V14.429h8.5Z" fill="#ab1017"/>
    <path id="Path_8" data-name="Path 8" d="M167.029,201.485a1.03,1.03,0,0,0,1.029-1.029v-1.78l2.515-.539v.892a1.029,1.029,0,1,0,.686.97v-3.658a.343.343,0,0,0-.415-.335l-3.2.686a.343.343,0,0,0-.271.335v2.459a1.029,1.029,0,1,0-.343,2Zm3.2-1.143a.343.343,0,1,1,.343-.343A.343.343,0,0,1,170.229,200.342Zm.343-3.576v.67l-2.515.539v-.67Zm-3.543,3.348a.343.343,0,1,1-.343.343A.343.343,0,0,1,167.029,200.114Z" transform="translate(-162.205 -180.77)" fill="#ab1017"/>
  </g>
</svg>
