<svg id="next_2_" data-name="next (2)" xmlns="http://www.w3.org/2000/svg" width="32" height="32" viewBox="0 0 32 32">
  <path id="Path_18" data-name="Path 18" d="M4.686,4.686A16,16,0,0,1,27.314,27.314,16,16,0,0,1,4.686,4.686ZM16,30.125A14.125,14.125,0,1,0,1.875,16,14.141,14.141,0,0,0,16,30.125Z" transform="translate(0)" fill="#e0e0e0"/>
  <path id="Path_19" data-name="Path 19" d="M91.937,141h3.75a.938.938,0,0,1,.938.938v4.248l5.962-4.969a.938.938,0,0,1,1.538.72v4.248l5.962-4.969a.938.938,0,0,1,1.538.72v12.5a.937.937,0,0,1-1.538.72l-5.962-4.969v4.248a.937.937,0,0,1-1.538.72l-5.962-4.969v4.248a.938.938,0,0,1-.937.938h-3.75a.938.938,0,0,1-.937-.937v-12.5A.938.938,0,0,1,91.937,141Zm17.812,11.436v-8.5l-5.1,4.248Zm-7.5,0v-8.5l-5.1,4.248ZM92.875,153.5H94.75V142.875H92.875Z" transform="translate(-85.312 -132.187)" fill="#e0e0e0"/>
</svg>
