<svg xmlns="http://www.w3.org/2000/svg" width="32" height="32" viewBox="0 0 32 32">
  <g id="next_2_" data-name="next (2)" transform="translate(0)">
    <path id="Path_18" data-name="Path 18" d="M27.314,4.686A16,16,0,0,0,4.686,27.314,16,16,0,0,0,27.314,4.686ZM16,30.125A14.125,14.125,0,1,1,30.125,16,14.141,14.141,0,0,1,16,30.125Z" transform="translate(0)" fill="#e0e0e0"/>
    <path id="Path_19" data-name="Path 19" d="M110.688,141h-3.75a.938.938,0,0,0-.937.938v4.248l-5.962-4.969a.938.938,0,0,0-1.538.72v4.248l-5.962-4.969a.938.938,0,0,0-1.538.72v12.5a.938.938,0,0,0,1.538.72l5.962-4.969v4.248a.938.938,0,0,0,1.538.72L106,150.189v4.248a.938.938,0,0,0,.938.938h3.75a.938.938,0,0,0,.938-.937v-12.5A.938.938,0,0,0,110.688,141ZM92.875,152.436v-8.5l5.1,4.248Zm7.5,0v-8.5l5.1,4.248Zm9.375,1.064h-1.875V142.875h1.875Z" transform="translate(-85.313 -132.187)" fill="#e0e0e0"/>
  </g>
</svg>
