<svg xmlns="http://www.w3.org/2000/svg" width="56" height="56" viewBox="0 0 56 56">
  <g id="play_2_" data-name="play (2)" transform="translate(0)">
    <path id="Path_16" data-name="Path 16" d="M47.8,8.2A28,28,0,0,0,8.2,47.8,28,28,0,0,0,47.8,8.2ZM28,52.719A24.719,24.719,0,1,1,52.719,28,24.747,24.747,0,0,1,28,52.719Z" transform="translate(0)" fill="#e0e0e0"/>
    <path id="Path_17" data-name="Path 17" d="M193.289,125.53,173.6,111.311a1.641,1.641,0,0,0-2.6,1.33v28.438a1.641,1.641,0,0,0,2.6,1.33l19.688-14.219a1.641,1.641,0,0,0,0-2.66Zm-19.007,12.34V115.85l15.245,11.01Z" transform="translate(-152.297 -98.86)" fill="#e0e0e0"/>
  </g>
</svg>
