<svg xmlns="http://www.w3.org/2000/svg" width="22" height="32" viewBox="0 0 22 32">
  <g id="repeat" transform="translate(-60.15 -0.001)">
    <g id="Group_Arrows" transform="translate(60.15 0.001)">
      <path id="Path_24" data-name="Path 24" d="M61.15,16a1,1,0,0,0,1-1V7H78.741l-3.255,3.294a1.008,1.008,0,1,0,1.423,1.429l4.94-5a1.013,1.013,0,0,0,0-1.429h0l-4.94-5a1.008,1.008,0,0,0-1.423,1.428L78.723,5H61.15a1,1,0,0,0-1,1v9A1,1,0,0,0,61.15,16Z" transform="translate(-60.15 -0.001)" fill="#e0e0e0"/>
      <path id="Path_25" data-name="Path 25" d="M81.2,192.4a1,1,0,0,0-1,1v8.031H63.574l3.284-3.33a1.016,1.016,0,0,0,0-1.431,1,1,0,0,0-1.423,0l-4.914,4.984a1.019,1.019,0,0,0,0,1.474l4.915,4.983a1,1,0,0,0,1.423,0,1.016,1.016,0,0,0,0-1.431l-3.2-3.248H81.2a1,1,0,0,0,1-1V193.4A1,1,0,0,0,81.2,192.4Z" transform="translate(-60.201 -176.402)" fill="#e0e0e0"/>
    </g>
  </g>
</svg>
