<svg xmlns="http://www.w3.org/2000/svg" width="16" height="14.063" viewBox="0 0 16 14.063">
  <g id="shopping-cart" transform="translate(0 0)">
    <path id="Path_4" data-name="Path 4" d="M5.155,9.375h8.5a.469.469,0,0,0,.451-.34l1.875-6.563a.469.469,0,0,0-.451-.6H4.074L3.739.367A.469.469,0,0,0,3.281,0H.469a.469.469,0,0,0,0,.938H2.905L4.6,8.554a1.406,1.406,0,0,0,.559,2.7h8.5a.469.469,0,1,0,0-.938h-8.5a.469.469,0,0,1,0-.937ZM14.91,2.813,13.3,8.438H5.532L4.282,2.813Zm0,0" transform="translate(0 0)" fill="#e0e0e0"/>
    <path id="Path_5" data-name="Path 5" d="M150,361.406A1.406,1.406,0,1,0,151.406,360,1.408,1.408,0,0,0,150,361.406Zm1.406-.469a.469.469,0,1,1-.469.469A.469.469,0,0,1,151.406,360.938Zm0,0" transform="translate(-145.313 -348.75)" fill="#e0e0e0"/>
    <path id="Path_6" data-name="Path 6" d="M362,361.406A1.406,1.406,0,1,0,363.406,360,1.408,1.408,0,0,0,362,361.406Zm1.406-.469a.469.469,0,1,1-.469.469A.469.469,0,0,1,363.406,360.938Zm0,0" transform="translate(-350.688 -348.75)" fill="#e0e0e0"/>
  </g>
</svg>
